<mxfile host="app.diagrams.net" modified="2023-07-27T08:10:53.908Z" agent="Mozilla/5.0 (Macintosh; Intel Mac OS X 10_15_7) AppleWebKit/537.36 (KHTML, like Gecko) Chrome/114.0.0.0 Safari/537.36" version="21.5.0" etag="XF0sYdpap9xxfO-5bnYT" type="github">
  <diagram name="Page-1" id="3qNI4k4euscpyz2DfLMj">
    <mxGraphModel>
      <root>
        <mxCell id="0" />
        <mxCell id="1" parent="0" />
      </root>
    </mxGraphModel>
  </diagram>
</mxfile>
